HIERARCHY
ROOT Root
{
  OFFSET 0.0 0.0 0.0
  CHANNELS 6 Xposition Yposition Zposition Zrotation Yrotation Xrotation
  JOINT Hips
  {
    OFFSET 0.0 100.0 0.0
    CHANNELS 6 Xposition Yposition Zposition Zrotation Yrotation Xrotation
    JOINT Spine1
    {
      OFFSET -0.013727 5.003763 -0.053727
      CHANNELS 3 Zrotation Yrotation Xrotation
      JOINT Spine2
      {
        OFFSET -0.0 7.125301 -0.029825
        CHANNELS 3 Zrotation Yrotation Xrotation
        JOINT Chest
        {
          OFFSET -1e-06 7.550063 -0.815971
          CHANNELS 3 Zrotation Yrotation Xrotation
          JOINT Neck1
          {
            OFFSET -0.181677 26.311295 -0.553348
            CHANNELS 3 Zrotation Yrotation Xrotation
            JOINT Neck2
            {
              OFFSET -3e-06 7.709397 2.302585
              CHANNELS 3 Zrotation Yrotation Xrotation
              JOINT Head
              {
                OFFSET -5e-06 6.128916 1.953709
                CHANNELS 3 Zrotation Yrotation Xrotation
                JOINT HeadEnd
                {
                  OFFSET 0.003598 16.065403 -1.835379
                  CHANNELS 3 Zrotation Yrotation Xrotation
                }
                JOINT Jaw
                {
                  OFFSET 0.002637 0.475592 3.094941
                  CHANNELS 3 Zrotation Yrotation Xrotation
                }
                JOINT LeftEye
                {
                  OFFSET 3.206381 5.380205 7.586883
                  CHANNELS 3 Zrotation Yrotation Xrotation
                }
                JOINT RightEye
                {
                  OFFSET -3.22244 5.361869 7.558234
                  CHANNELS 3 Zrotation Yrotation Xrotation
                }
              }
            }
          }
          JOINT LeftShoulder
          {
            OFFSET 1.621652 23.237164 5.113413
            CHANNELS 3 Zrotation Yrotation Xrotation
            JOINT LeftArm
            {
              OFFSET 14.919846 2e-06 -5.502326
              CHANNELS 3 Zrotation Yrotation Xrotation
              JOINT LeftForeArm
              {
                OFFSET 28.739307 0.0 -0.002588
                CHANNELS 3 Zrotation Yrotation Xrotation
                JOINT LeftHand
                {
                  OFFSET 27.093981 -1e-06 0.002609
                  CHANNELS 3 Zrotation Yrotation Xrotation
                  JOINT LeftHandThumb1
                  {
                    OFFSET 2.276482 -1.392045 3.191413
                    CHANNELS 3 Zrotation Yrotation Xrotation
                    JOINT LeftHandThumb2
                    {
                      OFFSET 4.012836 -1.828127 1.641654
                      CHANNELS 3 Zrotation Yrotation Xrotation
                      JOINT LeftHandThumb3
                      {
                        OFFSET 2.798515 0.0 -3e-06
                        CHANNELS 3 Zrotation Yrotation Xrotation
                        JOINT LeftHandThumbEnd
                        {
                          OFFSET 3.180793 -4e-06 4e-06
                          CHANNELS 3 Zrotation Yrotation Xrotation
                        }
                      }
                    }
                  }
                  JOINT LeftHandIndex1
                  {
                    OFFSET 3.247555 -0.531998 2.296169
                    CHANNELS 3 Zrotation Yrotation Xrotation
                    JOINT LeftHandIndex2
                    {
                      OFFSET 6.364578 0.01206 0.1786
                      CHANNELS 3 Zrotation Yrotation Xrotation
                      JOINT LeftHandIndex3
                      {
                        OFFSET 3.662364 0.0 0.0
                        CHANNELS 3 Zrotation Yrotation Xrotation
                        JOINT LeftHandIndex4
                        {
                          OFFSET 2.329242 4e-06 4e-06
                          CHANNELS 3 Zrotation Yrotation Xrotation
                          JOINT LeftHandIndexEnd
                          {
                            OFFSET 2.759615 -0.180537 -0.113024
                            CHANNELS 3 Zrotation Yrotation Xrotation
                          }
                        }
                      }
                    }
                  }
                  JOINT LeftHandMiddle1
                  {
                    OFFSET 3.163495 0.240981 1.000332
                    CHANNELS 3 Zrotation Yrotation Xrotation
                    JOINT LeftHandMiddle2
                    {
                      OFFSET 6.19078 -0.259278 -1.002548
                      CHANNELS 3 Zrotation Yrotation Xrotation
                      JOINT LeftHandMiddle3
                      {
                        OFFSET 4.35652 -4e-06 -1e-06
                        CHANNELS 3 Zrotation Yrotation Xrotation
                        JOINT LeftHandMiddle4
                        {
                          OFFSET 2.996877 -8e-06 0.0
                          CHANNELS 3 Zrotation Yrotation Xrotation
                          JOINT LeftHandMiddleEnd
                          {
                            OFFSET 2.304287 -0.294569 -0.031741
                            CHANNELS 3 Zrotation Yrotation Xrotation
                          }
                        }
                      }
                    }
                  }
                  JOINT LeftHandRing1
                  {
                    OFFSET 2.882643 -0.053652 -0.322543
                    CHANNELS 3 Zrotation Yrotation Xrotation
                    JOINT LeftHandRing2
                    {
                      OFFSET 5.854541 -0.486202 -1.373841
                      CHANNELS 3 Zrotation Yrotation Xrotation
                      JOINT LeftHandRing3
                      {
                        OFFSET 4.350578 0.0 3e-06
                        CHANNELS 3 Zrotation Yrotation Xrotation
                        JOINT LeftHandRing4
                        {
                          OFFSET 2.651321 7e-06 2e-06
                          CHANNELS 3 Zrotation Yrotation Xrotation
                          JOINT LeftHandRingEnd
                          {
                            OFFSET 1.936105 0.077687 -7.1e-05
                            CHANNELS 3 Zrotation Yrotation Xrotation
                          }
                        }
                      }
                    }
                  }
                  JOINT LeftHandPinky1
                  {
                    OFFSET 2.8655 -0.310005 -1.600378
                    CHANNELS 3 Zrotation Yrotation Xrotation
                    JOINT LeftHandPinky2
                    {
                      OFFSET 5.087849 -1.331141 -1.77123
                      CHANNELS 3 Zrotation Yrotation Xrotation
                      JOINT LeftHandPinky3
                      {
                        OFFSET 3.070974 4e-06 0.0
                        CHANNELS 3 Zrotation Yrotation Xrotation
                        JOINT LeftHandPinky4
                        {
                          OFFSET 1.549672 0.0 1e-06
                          CHANNELS 3 Zrotation Yrotation Xrotation
                          JOINT LeftHandPinkyEnd
                          {
                            OFFSET 1.944893 -0.157802 0.057219
                            CHANNELS 3 Zrotation Yrotation Xrotation
                          }
                        }
                      }
                    }
                  }
                }
              }
            }
          }
          JOINT RightShoulder
          {
            OFFSET -1.380118 23.180309 5.214158
            CHANNELS 3 Zrotation Yrotation Xrotation
            JOINT RightArm
            {
              OFFSET -15.037196 1.2e-05 -5.545604
              CHANNELS 3 Zrotation Yrotation Xrotation
              JOINT RightForeArm
              {
                OFFSET -28.736639 2e-06 -0.002597
                CHANNELS 3 Zrotation Yrotation Xrotation
                JOINT RightHand
                {
                  OFFSET -27.133619 -0.0 0.002613
                  CHANNELS 3 Zrotation Yrotation Xrotation
                  JOINT RightHandThumb1
                  {
                    OFFSET -2.274032 -1.383988 3.163127
                    CHANNELS 3 Zrotation Yrotation Xrotation
                    JOINT RightHandThumb2
                    {
                      OFFSET -4.011429 -1.827466 1.640914
                      CHANNELS 3 Zrotation Yrotation Xrotation
                      JOINT RightHandThumb3
                      {
                        OFFSET -2.794935 -4e-06 -3e-06
                        CHANNELS 3 Zrotation Yrotation Xrotation
                        JOINT RightHandThumbEnd
                        {
                          OFFSET -3.183852 4e-06 1e-06
                          CHANNELS 3 Zrotation Yrotation Xrotation
                        }
                      }
                    }
                  }
                  JOINT RightHandIndex1
                  {
                    OFFSET -3.253266 -0.520057 2.282866
                    CHANNELS 3 Zrotation Yrotation Xrotation
                    JOINT RightHandIndex2
                    {
                      OFFSET -6.341917 0.012471 0.178266
                      CHANNELS 3 Zrotation Yrotation Xrotation
                      JOINT RightHandIndex3
                      {
                        OFFSET -3.654871 -8e-06 -0.0
                        CHANNELS 3 Zrotation Yrotation Xrotation
                        JOINT RightHandIndex4
                        {
                          OFFSET -2.327586 0.0 1e-06
                          CHANNELS 3 Zrotation Yrotation Xrotation
                          JOINT RightHandIndexEnd
                          {
                            OFFSET -2.76179 -0.180656 -0.113078
                            CHANNELS 3 Zrotation Yrotation Xrotation
                          }
                        }
                      }
                    }
                  }
                  JOINT RightHandMiddle1
                  {
                    OFFSET -3.168106 0.246593 1.00103
                    CHANNELS 3 Zrotation Yrotation Xrotation
                    JOINT RightHandMiddle2
                    {
                      OFFSET -6.180828 -0.258836 -1.000895
                      CHANNELS 3 Zrotation Yrotation Xrotation
                      JOINT RightHandMiddle3
                      {
                        OFFSET -4.348901 0.0 -0.0
                        CHANNELS 3 Zrotation Yrotation Xrotation
                        JOINT RightHandMiddle4
                        {
                          OFFSET -3.00024 -4e-06 -2e-06
                          CHANNELS 3 Zrotation Yrotation Xrotation
                          JOINT RightHandMiddleEnd
                          {
                            OFFSET -2.30252 -0.29437 -0.031706
                            CHANNELS 3 Zrotation Yrotation Xrotation
                          }
                        }
                      }
                    }
                  }
                  JOINT RightHandRing1
                  {
                    OFFSET -2.88569 -0.067952 -0.308858
                    CHANNELS 3 Zrotation Yrotation Xrotation
                    JOINT RightHandRing2
                    {
                      OFFSET -5.854198 -0.48613 -1.373731
                      CHANNELS 3 Zrotation Yrotation Xrotation
                      JOINT RightHandRing3
                      {
                        OFFSET -4.33881 -4e-06 -0.0
                        CHANNELS 3 Zrotation Yrotation Xrotation
                        JOINT RightHandRing4
                        {
                          OFFSET -2.654903 -4e-06 4e-06
                          CHANNELS 3 Zrotation Yrotation Xrotation
                          JOINT RightHandRingEnd
                          {
                            OFFSET -1.933568 0.077527 -5.2e-05
                            CHANNELS 3 Zrotation Yrotation Xrotation
                          }
                        }
                      }
                    }
                  }
                  JOINT RightHandPinky1
                  {
                    OFFSET -2.866425 -0.342796 -1.584145
                    CHANNELS 3 Zrotation Yrotation Xrotation
                    JOINT RightHandPinky2
                    {
                      OFFSET -5.091371 -1.332055 -1.772385
                      CHANNELS 3 Zrotation Yrotation Xrotation
                      JOINT RightHandPinky3
                      {
                        OFFSET -3.062664 -4e-06 1e-06
                        CHANNELS 3 Zrotation Yrotation Xrotation
                        JOINT RightHandPinky4
                        {
                          OFFSET -1.546529 4e-06 -2e-06
                          CHANNELS 3 Zrotation Yrotation Xrotation
                          JOINT RightHandPinkyEnd
                          {
                            OFFSET -1.945119 -0.157718 0.057211
                            CHANNELS 3 Zrotation Yrotation Xrotation
                          }
                        }
                      }
                    }
                  }
                }
              }
            }
          }
        }
      }
    }
    JOINT LeftLeg
    {
      OFFSET 10.043214 -8.434526 2.595655
      CHANNELS 3 Zrotation Yrotation Xrotation
      JOINT LeftShin
      {
        OFFSET -1e-06 -43.221752 -0.802913
        CHANNELS 3 Zrotation Yrotation Xrotation
        JOINT LeftFoot
        {
          OFFSET 1e-06 -42.155094 -3.481523
          CHANNELS 3 Zrotation Yrotation Xrotation
          JOINT LeftToeBase
          {
            OFFSET 0.0 -5.059472 13.231529
            CHANNELS 3 Zrotation Yrotation Xrotation
            JOINT LeftToeEnd
            {
              OFFSET -0.009607 -1.647619 6.513017
              CHANNELS 3 Zrotation Yrotation Xrotation
            }
          }
        }
      }
    }
    JOINT RightLeg
    {
      OFFSET -10.047278 -8.29526 2.620317
      CHANNELS 3 Zrotation Yrotation Xrotation
      JOINT RightShin
      {
        OFFSET 1e-06 -43.362206 -0.805556
        CHANNELS 3 Zrotation Yrotation Xrotation
        JOINT RightFoot
        {
          OFFSET 2e-06 -42.117393 -3.478398
          CHANNELS 3 Zrotation Yrotation Xrotation
          JOINT RightToeBase
          {
            OFFSET -0.0 -5.079609 13.284196
            CHANNELS 3 Zrotation Yrotation Xrotation
            JOINT RightToeEnd
            {
              OFFSET 0.009532 -1.634378 6.460591
              CHANNELS 3 Zrotation Yrotation Xrotation
            }
          }
        }
      }
    }
  }
}
MOTION
Frames: 4
Frame Time: 0.03333333333333333
0.094706 0.137016 -0.053632 0.0 -0.0 0.0 0.094706 100.137016 -0.053632 1.4563 -0.149969 -1.139694 0.182341 -0.045875 -6.620101 -0.583574 -0.608142 -7.544747 -1.543751 -2.308962 15.897557 -2.407666 3.087185 -3.789304 -0.734691 -0.437731 -3.591495 1.828061 -3.448863 0.575081 7.3e-05 0.000928 1.7e-05 0.003117 0.116851 -0.123564 0.785952 -3.62645 -10.711341 -0.788326 3.857958 -10.669719 -15.077757 -2.224543 14.370772 -51.696342 -13.291084 30.188261 0.733171 -42.877777 -0.133405 1.548984 2.784912 -3.994786 -5.884887 9.854796 0.703826 -10.976378 -0.394843 7.12898 -0.00844 8.758561 -0.004876 -15.700216 18.174597 6.201007 -1.838249 2.504023 -2.478096 -10.165857 4.677904 4.626289 -20.971781 0.014467 3.3e-05 -21.221113 2.455693 -3.581414 0.006339 -0.006303 -0.011064 -1.369439 2.233255 -0.711529 -21.330969 0.601244 3.00625 -13.840097 0.013605 0.005691 -23.914818 -0.240099 -0.852085 -59.938606 2.783868 -0.961044 -0.292313 1.669262 0.839382 -14.220855 0.126315 1.318058 -34.227959 -0.252386 0.950072 -20.057795 0.967218 1.205093 0.000138 0.007445 0.000828 -3.436274 0.780756 0.509461 -15.932238 -3.12928 3.019295 -6.33627 0.006336 -0.003461 -18.128695 3.666894 -4.898113 -0.000788 -0.005448 -0.000592 10.624621 6.73952 14.414831 64.804077 18.909229 42.600365 0.239668 22.291143 0.111527 1.593282 -0.73771 -7.133896 2.233397 -5.279272 -3.207505 14.305402 -0.799762 6.926794 0.002689 -12.690218 0.00461 16.346741 -17.822252 2.415745 1.670215 -1.966541 -2.870395 4.722194 -4.162488 5.005249 11.010562 0.005107 -0.021096 12.092662 -3.73375 -2.836056 -0.004689 -0.005798 0.009408 1.300873 -1.925878 -1.475005 14.779226 0.55645 3.853824 14.244637 -1.344497 -6.651712 19.63719 0.132616 -0.635343 49.842285 -0.582743 -6.517451 0.35532 -1.508874 -0.024559 20.204927 3.67339 2.335417 18.768608 0.005923 -0.007098 10.73654 -0.477689 1.391356 -0.006361 -0.008792 -0.000525 3.279878 0.307838 -0.554023 21.468464 11.833759 2.24339 8.169237 -0.005084 0.010784 18.430351 -3.786406 -4.94585 -0.004001 0.00078 0.008892 2.540203 5.437171 0.241989 -0.026537 -0.272925 3.458808 -6.779975 -1.18797 -2.639078 1.642627 -1.978107 -0.145044 -0.000258 0.000472 -0.000539 -4.580613 6.138099 -3.677832 -0.027802 0.106939 11.379447 6.297437 -6.648276 -7.223147 -1.418464 1.099291 0.020861 0.000269 0.000116 0.001431 
0.065592 0.137016 -0.035429 0.0 -0.0 0.0 0.065592 100.16346 -0.035429 1.489133 -0.211801 -1.113398 0.164302 -0.046539 -6.644538 -0.556973 -0.543733 -7.519604 -1.491303 -2.243204 15.825895 -2.549518 3.051076 -3.924838 -0.710867 -0.371392 -3.572993 1.746471 -3.389787 0.657456 -7.7e-05 0.000755 0.000278 0.010215 0.135926 -0.123001 0.784468 -3.58743 -10.670971 -0.772028 3.875768 -10.658996 -14.959612 -2.134977 14.088453 -50.29805 -12.447647 27.726519 1.012581 -48.579227 -0.405036 1.154009 2.94378 -3.823104 -5.831974 9.853895 0.688101 -10.932405 -0.363842 7.16429 -0.004988 8.772443 -0.016833 -15.763966 18.258261 6.241754 -1.837193 2.496756 -2.544391 -10.179099 4.686622 4.64106 -20.998367 0.003763 -0.00852 -21.281097 2.41453 -3.613574 0.003231 0.006112 -0.010654 -1.36743 2.250695 -0.752022 -21.333725 0.569561 3.001205 -13.827435 0.000877 -0.006439 -23.915228 -0.254619 -0.873403 -60.205433 2.748768 -0.917653 -0.301805 1.697919 0.818401 -14.221395 0.079536 1.306384 -34.247128 -0.292429 0.941125 -20.033567 0.955238 1.1979 -0.005013 0.010218 -0.004131 -3.442775 0.785263 0.475024 -15.929244 -3.155759 3.013989 -6.34019 -0.002101 -0.002038 -18.13723 3.642466 -4.940162 0.003534 0.01087 0.008519 10.561299 6.719297 14.510073 64.746086 18.913151 42.09832 0.294242 22.296419 0.107691 1.680389 -0.688783 -7.031394 2.222391 -5.307058 -3.299477 14.318044 -0.768367 6.893654 0.002218 -12.66981 0.005428 16.41083 -17.903515 2.330287 1.657735 -1.949704 -2.87115 4.730135 -4.171524 5.012687 11.008884 0.004354 0.002008 12.092361 -3.725537 -2.847573 -0.005429 -0.002262 0.001046 1.289492 -1.909658 -1.479394 14.780161 0.541143 3.855207 14.225344 -1.348188 -6.641139 19.590649 0.139474 -0.630729 49.676163 -0.551565 -6.626265 0.348936 -1.485641 -0.009511 20.182873 3.642599 2.314077 18.752323 -0.012225 -0.012278 10.730148 -0.481616 1.395726 -0.0076 -0.004158 -0.013267 3.264835 0.316943 -0.558887 21.461752 11.803574 2.25285 8.162048 -0.004305 0.003816 18.38349 -3.812515 -4.927529 -0.005034 0.001605 0.00969 2.497164 5.450491 0.521761 -0.031912 -0.287928 2.9231 -6.708249 -1.002754 -2.18972 1.647173 -1.979329 -0.152359 -0.000233 0.000573 0.003041 -4.616434 6.054647 -3.619251 -0.022425 0.077855 11.202322 6.322268 -6.462981 -7.183045 -1.417164 1.075503 -0.183666 0.000111 1e-05 -0.001695 
0.079364 0.137016 0.005049 0.0 -0.0 0.0 0.079364 100.183022 0.005049 1.503315 -0.194514 -1.085228 0.155398 -0.059911 -6.704839 -0.549288 -0.481184 -7.55793 -1.404588 -2.168873 15.82388 -2.727789 3.132763 -3.911752 -0.739578 -0.331212 -3.585466 1.801091 -3.397883 0.591811 -3.2e-05 -0.000958 0.003153 0.013668 0.141566 -0.116642 0.780811 -3.593438 -10.684382 -0.763864 3.880252 -10.655421 -14.741858 -2.116731 13.901244 -48.494389 -11.599445 25.024239 1.599167 -56.169563 -0.947918 0.484517 3.025693 -3.96158 -5.887312 9.745015 0.722381 -10.961865 -0.385098 7.098965 -0.001464 8.77545 -0.016029 -15.95389 18.312572 6.246388 -1.847041 2.507038 -2.501078 -10.178674 4.683589 4.621252 -20.982388 -0.025017 -0.004467 -21.224279 2.460334 -3.615673 -0.009504 -0.004738 -0.000404 -1.378201 2.269778 -0.753281 -21.354082 0.570528 3.034625 -13.830398 -0.000251 -0.015555 -23.930115 -0.242181 -0.852347 -60.612186 2.818841 -0.903708 -0.295863 1.705577 0.834933 -14.235077 0.083719 1.300947 -34.25433 -0.282602 0.997156 -20.060417 0.973635 1.207565 0.004479 0.003904 -0.008511 -3.45263 0.813655 0.483138 -15.922502 -3.176161 3.023885 -6.354047 0.001745 -0.007444 -18.15262 3.640524 -4.918077 0.002576 -0.01025 -0.001628 10.534265 6.832597 15.107618 64.850555 18.791986 41.821796 0.220034 22.376501 0.10643 1.642421 -0.636626 -7.210791 2.241036 -5.251132 -3.163229 14.308909 -0.804094 6.965193 0.006213 -12.683502 -0.001454 16.450172 -18.049034 2.407311 1.666728 -1.962346 -2.889407 4.730531 -4.169044 4.988865 11.029563 -0.007571 0.011848 12.139143 -3.742928 -2.871116 -0.012861 -0.000874 0.0024 1.301071 -1.928767 -1.520332 14.793567 0.553146 3.873146 14.270579 -1.354491 -6.635357 19.666649 0.127271 -0.694064 49.907661 -0.492807 -6.659621 0.366035 -1.507584 -0.044011 20.20785 3.658859 2.314923 18.800306 -0.020724 -0.001256 10.768091 -0.480745 1.399895 0.003831 0.000164 0.005457 3.289824 0.305478 -0.598439 21.467897 11.805017 2.277342 8.162257 -0.015742 0.00017 18.403973 -3.816308 -4.950324 0.013506 0.001513 -0.00059 2.463615 5.388335 0.669827 -0.04924 -0.296111 2.608783 -6.696831 -0.880976 -2.053746 1.646319 -1.970623 -0.160614 -0.000717 0.000746 -0.003281 -4.631488 6.077168 -3.514271 -0.040117 0.076526 10.985817 6.360126 -6.463853 -7.077567 -1.412012 1.095686 -0.30549 -0.000134 6.9e-05 0.002505 
0.130629 0.137016 0.063268 0.0 -0.0 0.0 0.130629 100.185287 0.063268 1.487802 -0.225402 -1.048962 0.154658 -0.044403 -6.745563 -0.535672 -0.454878 -7.615312 -1.327933 -2.073916 15.766324 -2.971228 3.203806 -3.867148 -0.730733 -0.211265 -3.59543 1.859493 -3.463499 0.752873 0.000534 7.8e-05 0.003418 0.013287 0.146748 -0.109957 0.773401 -3.582949 -10.685036 -0.755488 3.883249 -10.682213 -14.424174 -1.881756 13.520228 -46.302879 -10.861586 21.860607 2.003626 -65.022385 -1.529428 -0.483147 2.950537 -4.972756 -5.835332 9.802502 0.742005 -10.943293 -0.364725 7.155086 -0.004188 8.781628 0.002743 -16.155756 18.333586 6.239233 -1.832173 2.483469 -2.520101 -10.169863 4.703415 4.616827 -21.00309 -0.016565 -0.002571 -21.235739 2.447985 -3.603429 -0.012188 -0.007394 -0.00315 -1.363049 2.239473 -0.757685 -21.323648 0.608078 3.001915 -13.824606 -0.001384 -0.007134 -23.903381 -0.274074 -0.860445 -60.809216 2.845061 -0.953519 -0.286225 1.686529 0.816192 -14.234198 0.09239 1.309446 -34.238213 -0.298807 0.947867 -20.049725 0.940626 1.216667 0.005435 0.00014 -0.000586 -3.45558 0.815859 0.469488 -15.922626 -3.172628 3.025725 -6.345229 -0.002237 -0.007576 -18.131006 3.665804 -4.913519 0.00355 -0.001945 -0.000133 10.450118 6.830775 14.994932 64.865692 18.691547 41.421398 0.186093 22.337311 0.132511 1.517504 -0.451508 -7.48715 2.240312 -5.23196 -3.155478 14.311097 -0.824444 6.964761 0.012166 -12.694633 -0.015731 16.506109 -18.218634 2.426093 1.653012 -1.956333 -2.885796 4.735225 -4.173942 4.995568 11.029555 -0.005496 0.018889 12.113121 -3.732837 -2.85885 0.005604 -0.000541 -0.001883 1.296277 -1.942871 -1.492967 14.800624 0.574996 3.872608 14.245763 -1.341173 -6.672361 19.634136 0.107035 -0.646977 49.762627 -0.588459 -6.687612 0.363641 -1.523816 -0.025729 20.197481 3.677751 2.307716 18.788088 -0.034491 0.014405 10.763963 -0.464587 1.41113 -0.00709 -0.013574 -0.009783 3.292147 0.291106 -0.575037 21.464563 11.808578 2.282644 8.15784 -0.010217 -0.005223 18.425468 -3.817371 -4.945488 -0.004776 0.000616 0.009228 2.475242 5.331193 0.64301 -0.058554 -0.285736 2.665268 -6.721364 -0.741273 -2.184137 1.648681 -1.976518 -0.119009 -9.3e-05 -0.000835 0.003155 -4.714017 6.137898 -3.482962 -0.045728 0.065774 10.884956 6.44541 -6.437475 -7.00855 -1.409274 1.133475 -0.359902 0.000185 -0.000149 0.009119 
